<svg width="39.112793" height="110.532227" viewBox="0 0 39.1128 110.532" fill="none" xmlns="http://www.w3.org/2000/svg" xmlns:xlink="http://www.w3.org/1999/xlink">
	<desc>
			Created with Pixso.
	</desc>
	<defs/>
	<path id="Arrow 3" d="M10.8 95.22Q19.79 105.78 39.11 107.54L38.84 110.53Q18.66 108.69 8.92 97.65Q5.94 94.27 3.94 90.04Q-2.83 75.73 2.02 52.46Q5.45 36.03 14.24 16.77Q17.62 9.35 20.61 3.85L12.43 6C11.62 6.21 10.81 5.74 10.6 4.93C10.39 4.11 10.86 3.31 11.67 3.09L23.28 0.05C24.09 -0.17 24.9 0.3 25.11 1.12L28.16 12.72C28.37 13.54 27.9 14.34 27.09 14.55C26.27 14.77 25.47 14.3 25.25 13.48L23.15 5.47Q20.25 10.81 16.97 18.01Q8.32 36.97 4.96 53.08Q0.31 75.35 6.65 88.75Q8.34 92.32 10.8 95.22Z" fill="#A8E892" fill-opacity="1.000000" fill-rule="evenodd"/>
</svg>
